<svg xmlns="http://www.w3.org/2000/svg" width="14.004" height="14">
  <defs>
    <style>
      .prefix__b {
        fill: #ffe793
      }

      .prefix__c {
        fill: #ab8625
      }
    </style>
  </defs>
  <path fill="none" d="M0 0h14v14H0z" />
  <path class="prefix__b"
    d="M2.004 1h2.711a1.347 1.347 0 011.141.492C6.169 1.8 7.504 3 7.504 3h3.5a2 2 0 012 2v6a2 2 0 01-2 2h-9a2 2 0 01-2-2V3a2 2 0 012-2z" />
  <path class="prefix__c"
    d="M2.004 2a1 1 0 00-1 1v8a1 1 0 001 1h9a1 1 0 001-1V5a1 1 0 00-1-1H7.118l-.285-.257c-.055-.05-1.352-1.22-1.675-1.534C4.944 2 4.944 2 4.715 2H2.004m0-1h2.711a1.347 1.347 0 011.141.492C6.169 1.8 7.504 3 7.504 3h3.5a2 2 0 012 2v6a2 2 0 01-2 2h-9a2 2 0 01-2-2V3a2 2 0 012-2z" />
  <path class="prefix__b"
    d="M3.229 5h9.075a1.616 1.616 0 011.649 2l-.908 4c-.279 1.088-.715 2-1.819 2H1.953c-1.1 0-2.112-1.181-1.931-2l1.031-4.247A2.252 2.252 0 013.229 5z" />
  <path class="prefix__c"
    d="M3.198 6a1.253 1.253 0 00-1.176.989l-1.021 4.217a.88.88 0 00.266.45 1.045 1.045 0 00.686.344h9.273c.211 0 .529 0 .847-1.235l.91-4.008a.559.559 0 00-.094-.5.728.728 0 00-.585-.257H3.198m0-1h9.107a1.616 1.616 0 011.648 2l-.908 4c-.279 1.088-.715 2-1.819 2H1.953c-1.1 0-2.112-1.181-1.931-2l1.031-4.247A2.254 2.254 0 013.198 5z" />
</svg>
