<svg xmlns="http://www.w3.org/2000/svg" width="14" height="14" viewBox="0 0 14 14"><defs><style>.a{fill:none;}.b{fill:#fef9e4;}.c{fill:#b27c45;}</style></defs><g transform="translate(-409 -832)"><rect class="a" width="14" height="14" transform="translate(409 832)"/><g transform="translate(-1893 1218)"><rect class="b" width="12" height="14" rx="3" transform="translate(2303 -386)"/><path class="c" d="M2,14a2,2,0,0,1-2-2V2A2,2,0,0,1,2,0h8a2,2,0,0,1,2,2V12a2,2,0,0,1-2,2ZM1,12a1,1,0,0,0,1,1h8a1,1,0,0,0,1-1V4.75a.25.25,0,1,1,0-.5V4H1v.25a.25.25,0,0,1,0,.5Zm1.5-1a.5.5,0,1,1,0-1h3a.5.5,0,1,1,0,1Zm0-3a.5.5,0,1,1,0-1h6a.5.5,0,1,1,0,1Zm7-3.25a.25.25,0,1,1,0-.5H10a.25.25,0,1,1,0,.5ZM8,4.75a.25.25,0,0,1,0-.5h.5a.25.25,0,1,1,0,.5Zm-1.5,0a.25.25,0,1,1,0-.5H7a.25.25,0,0,1,0,.5ZM5,4.75a.25.25,0,0,1,0-.5h.5a.25.25,0,0,1,0,.5Zm-1.5,0a.25.25,0,1,1,0-.5H4a.25.25,0,1,1,0,.5ZM2,4.75a.25.25,0,1,1,0-.5h.5a.25.25,0,1,1,0,.5Z" transform="translate(2303 -386)"/></g></g></svg>