<svg width="24" height="24" viewBox="0 0 48 48" fill="none" xmlns="http://www.w3.org/2000/svg">
  <path
    d="M18.284 43.171a19.995 19.995 0 01-8.696-5.304 6 6 0 00-5.182-9.838A20.09 20.09 0 014 24c0-2.09.32-4.106.916-6H5a6 6 0 005.385-8.65 19.968 19.968 0 018.267-4.627A6 6 0 0024 8a6 6 0 005.348-3.277 19.968 19.968 0 018.267 4.627A6 6 0 0043.084 18c.595 1.894.916 3.91.916 6 0 1.38-.14 2.728-.406 4.03a6 6 0 00-5.182 9.838 19.995 19.995 0 01-8.696 5.303 6.003 6.003 0 00-11.432 0z"
    fill="var(--vui-icon-two-tone-color)" stroke="currentColor" stroke-width="4" stroke-linejoin="round" />
  <path d="M24 31a7 7 0 100-14 7 7 0 000 14z" fill="var(--vui-icon-two-tone-color)" stroke="currentColor"
    stroke-width="4" stroke-linejoin="round" />
</svg>